<mxfile host="app.diagrams.net" agent="Mozilla/5.0 (Windows NT 10.0; Win64; x64) AppleWebKit/537.36 (KHTML, like Gecko) Chrome/136.0.0.0 Safari/537.36" version="26.2.14">
  <diagram name="Page-1" id="1gVMubMxImwngbrHATFX">
    <mxGraphModel dx="1332" dy="1765" grid="1" gridSize="10" guides="1" tooltips="1" connect="1" arrows="1" fold="1" page="1" pageScale="1" pageWidth="850" pageHeight="1100" math="0" shadow="0">
      <root>
        <mxCell id="0" />
        <mxCell id="1" parent="0" />
        <mxCell id="2" value="Cafeteria" style="swimlane;fontStyle=1;align=center;verticalAlign=top;childLayout=stackLayout;horizontal=1;startSize=40.57142857142857;horizontalStack=0;resizeParent=1;resizeParentMax=0;resizeLast=0;collapsible=0;marginBottom=0;" parent="1" vertex="1">
          <mxGeometry x="921" y="-450" width="226" height="241.57142857142856" as="geometry" />
        </mxCell>
        <mxCell id="OcVJJqnOSVhNaOeBst9T-50" value="&lt;div style=&quot;&quot;&gt;&lt;span style=&quot;background-color: transparent; color: light-dark(rgb(0, 0, 0), rgb(255, 255, 255));&quot;&gt;Total Sales :double&lt;/span&gt;&lt;/div&gt;&lt;div&gt;&lt;div&gt;Current date : Date&lt;/div&gt;&lt;/div&gt;" style="text;html=1;align=left;verticalAlign=middle;resizable=0;points=[];autosize=1;strokeColor=none;fillColor=none;" vertex="1" parent="2">
          <mxGeometry y="40.57142857142857" width="226" height="40" as="geometry" />
        </mxCell>
        <mxCell id="OcVJJqnOSVhNaOeBst9T-51" value="sales records :MYvector" style="text;html=1;align=left;verticalAlign=middle;resizable=0;points=[];autosize=1;strokeColor=none;fillColor=none;" vertex="1" parent="2">
          <mxGeometry y="80.57142857142857" width="226" height="30" as="geometry" />
        </mxCell>
        <mxCell id="3" style="line;strokeWidth=1;fillColor=none;align=left;verticalAlign=middle;spacingTop=-1;spacingLeft=3;spacingRight=3;rotatable=0;labelPosition=right;points=[];portConstraint=eastwest;strokeColor=inherit;" parent="2" vertex="1">
          <mxGeometry y="110.57142857142857" width="226" height="8" as="geometry" />
        </mxCell>
        <mxCell id="4" value="saves sale records()&#xa;loads sales records()" style="text;strokeColor=none;fillColor=none;align=left;verticalAlign=top;spacingLeft=4;spacingRight=4;overflow=hidden;rotatable=0;points=[[0,0.5],[1,0.5]];portConstraint=eastwest;" parent="2" vertex="1">
          <mxGeometry y="118.57142857142857" width="226" height="41" as="geometry" />
        </mxCell>
        <mxCell id="OcVJJqnOSVhNaOeBst9T-55" value="place order()&#xa;generate sales record()" style="text;strokeColor=none;fillColor=none;align=left;verticalAlign=top;spacingLeft=4;spacingRight=4;overflow=hidden;rotatable=0;points=[[0,0.5],[1,0.5]];portConstraint=eastwest;" vertex="1" parent="2">
          <mxGeometry y="159.57142857142856" width="226" height="41" as="geometry" />
        </mxCell>
        <mxCell id="5" value="display menu()&#xa;load customers()&#xa;" style="text;strokeColor=none;fillColor=none;align=left;verticalAlign=top;spacingLeft=4;spacingRight=4;overflow=hidden;rotatable=0;points=[[0,0.5],[1,0.5]];portConstraint=eastwest;" parent="2" vertex="1">
          <mxGeometry y="200.57142857142856" width="226" height="41" as="geometry" />
        </mxCell>
        <mxCell id="39" value="" style="curved=1;startArrow=none;endArrow=open;endSize=12;entryX=0.623;entryY=0.007;entryDx=0;entryDy=0;entryPerimeter=0;exitX=-0.011;exitY=0.992;exitDx=0;exitDy=0;exitPerimeter=0;" parent="1" source="5" target="6" edge="1">
          <mxGeometry relative="1" as="geometry">
            <mxPoint x="934" y="-230" as="sourcePoint" />
            <mxPoint x="750" as="targetPoint" />
          </mxGeometry>
        </mxCell>
        <mxCell id="6" value="MenuManager" style="swimlane;fontStyle=1;align=center;verticalAlign=top;childLayout=stackLayout;horizontal=1;startSize=47.2;horizontalStack=0;resizeParent=1;resizeParentMax=0;resizeLast=0;collapsible=0;marginBottom=0;" parent="1" vertex="1">
          <mxGeometry x="580" y="80" width="189" height="226.2" as="geometry" />
        </mxCell>
        <mxCell id="OcVJJqnOSVhNaOeBst9T-56" value="menu items: MYvector" style="text;html=1;align=center;verticalAlign=middle;resizable=0;points=[];autosize=1;strokeColor=none;fillColor=none;" vertex="1" parent="6">
          <mxGeometry y="47.2" width="189" height="30" as="geometry" />
        </mxCell>
        <mxCell id="7" style="line;strokeWidth=1;fillColor=none;align=left;verticalAlign=middle;spacingTop=-1;spacingLeft=3;spacingRight=3;rotatable=0;labelPosition=right;points=[];portConstraint=eastwest;strokeColor=inherit;" parent="6" vertex="1">
          <mxGeometry y="77.2" width="189" height="8" as="geometry" />
        </mxCell>
        <mxCell id="8" value="save menu to file()&#xa;load menu to file()&#xa;" style="text;strokeColor=none;fillColor=none;align=left;verticalAlign=top;spacingLeft=4;spacingRight=4;overflow=hidden;rotatable=0;points=[[0,0.5],[1,0.5]];portConstraint=eastwest;" parent="6" vertex="1">
          <mxGeometry y="85.2" width="189" height="47" as="geometry" />
        </mxCell>
        <mxCell id="OcVJJqnOSVhNaOeBst9T-58" value="initialize default menu()&#xa;add menu item()" style="text;strokeColor=none;fillColor=none;align=left;verticalAlign=top;spacingLeft=4;spacingRight=4;overflow=hidden;rotatable=0;points=[[0,0.5],[1,0.5]];portConstraint=eastwest;" vertex="1" parent="6">
          <mxGeometry y="132.2" width="189" height="47" as="geometry" />
        </mxCell>
        <mxCell id="OcVJJqnOSVhNaOeBst9T-57" value="remove menu item()&#xa;display menu (full or by category)" style="text;strokeColor=none;fillColor=none;align=left;verticalAlign=top;spacingLeft=4;spacingRight=4;overflow=hidden;rotatable=0;points=[[0,0.5],[1,0.5]];portConstraint=eastwest;" vertex="1" parent="6">
          <mxGeometry y="179.2" width="189" height="47" as="geometry" />
        </mxCell>
        <mxCell id="9" value="CustomerManager" style="swimlane;fontStyle=1;align=center;verticalAlign=top;childLayout=stackLayout;horizontal=1;startSize=47.2;horizontalStack=0;resizeParent=1;resizeParentMax=0;resizeLast=0;collapsible=0;marginBottom=0;" parent="1" vertex="1">
          <mxGeometry x="871" y="-60" width="259" height="207.2" as="geometry" />
        </mxCell>
        <mxCell id="OcVJJqnOSVhNaOeBst9T-59" value="customers&amp;nbsp; : MYvectors" style="text;html=1;align=left;verticalAlign=middle;resizable=0;points=[];autosize=1;strokeColor=none;fillColor=none;" vertex="1" parent="9">
          <mxGeometry y="47.2" width="259" height="30" as="geometry" />
        </mxCell>
        <mxCell id="OcVJJqnOSVhNaOeBst9T-60" style="text;html=1;align=left;verticalAlign=middle;resizable=0;points=[];autosize=1;strokeColor=none;fillColor=none;" vertex="1" parent="9">
          <mxGeometry y="77.2" width="259" height="30" as="geometry" />
        </mxCell>
        <mxCell id="OcVJJqnOSVhNaOeBst9T-61" value="load customer from file()&lt;div&gt;register customer()&lt;/div&gt;&lt;div&gt;save customer to file()&lt;/div&gt;&lt;div&gt;find customer()&lt;/div&gt;&lt;div&gt;update customer info()&lt;/div&gt;&lt;div&gt;&lt;br&gt;&lt;/div&gt;" style="text;html=1;align=left;verticalAlign=middle;resizable=0;points=[];autosize=1;strokeColor=none;fillColor=none;" vertex="1" parent="9">
          <mxGeometry y="107.2" width="259" height="100" as="geometry" />
        </mxCell>
        <mxCell id="OcVJJqnOSVhNaOeBst9T-64" value="" style="endArrow=none;html=1;rounded=0;exitX=0.009;exitY=0.521;exitDx=0;exitDy=0;exitPerimeter=0;entryX=1.008;entryY=0.521;entryDx=0;entryDy=0;entryPerimeter=0;" edge="1" parent="9" source="OcVJJqnOSVhNaOeBst9T-60" target="OcVJJqnOSVhNaOeBst9T-60">
          <mxGeometry width="50" height="50" relative="1" as="geometry">
            <mxPoint x="19" y="124.6" as="sourcePoint" />
            <mxPoint x="249" y="92.6" as="targetPoint" />
          </mxGeometry>
        </mxCell>
        <mxCell id="12" value="MenuItem" style="swimlane;fontStyle=1;align=center;verticalAlign=top;childLayout=stackLayout;horizontal=1;startSize=47.2;horizontalStack=0;resizeParent=1;resizeParentMax=0;resizeLast=0;collapsible=0;marginBottom=0;" parent="1" vertex="1">
          <mxGeometry x="645" y="384" width="200" height="145.2" as="geometry" />
        </mxCell>
        <mxCell id="13" style="line;strokeWidth=1;fillColor=none;align=left;verticalAlign=middle;spacingTop=-1;spacingLeft=3;spacingRight=3;rotatable=0;labelPosition=right;points=[];portConstraint=eastwest;strokeColor=inherit;" parent="12" vertex="1">
          <mxGeometry y="47.2" width="200" height="8" as="geometry" />
        </mxCell>
        <mxCell id="OcVJJqnOSVhNaOeBst9T-77" value="name :string&lt;div&gt;price:double&lt;/div&gt;&lt;div&gt;stock : int&lt;/div&gt;" style="text;html=1;align=left;verticalAlign=middle;resizable=0;points=[];autosize=1;strokeColor=none;fillColor=none;" vertex="1" parent="12">
          <mxGeometry y="55.2" width="200" height="60" as="geometry" />
        </mxCell>
        <mxCell id="OcVJJqnOSVhNaOeBst9T-78" value="getters / setters / update" style="text;html=1;align=left;verticalAlign=middle;resizable=0;points=[];autosize=1;strokeColor=none;fillColor=none;" vertex="1" parent="12">
          <mxGeometry y="115.2" width="200" height="30" as="geometry" />
        </mxCell>
        <mxCell id="15" value="VeganMenuItem" style="swimlane;fontStyle=1;align=center;verticalAlign=top;childLayout=stackLayout;horizontal=1;startSize=47.2;horizontalStack=0;resizeParent=1;resizeParentMax=0;resizeLast=0;collapsible=0;marginBottom=0;" parent="1" vertex="1">
          <mxGeometry x="230" y="580" width="218" height="94.2" as="geometry" />
        </mxCell>
        <mxCell id="17" value="get category()&#xa;display items()" style="text;strokeColor=none;fillColor=none;align=left;verticalAlign=top;spacingLeft=4;spacingRight=4;overflow=hidden;rotatable=0;points=[[0,0.5],[1,0.5]];portConstraint=eastwest;" parent="15" vertex="1">
          <mxGeometry y="47.2" width="218" height="47" as="geometry" />
        </mxCell>
        <mxCell id="18" value="VegetarianMenuItem" style="swimlane;fontStyle=1;align=center;verticalAlign=top;childLayout=stackLayout;horizontal=1;startSize=47.2;horizontalStack=0;resizeParent=1;resizeParentMax=0;resizeLast=0;collapsible=0;marginBottom=0;" parent="1" vertex="1">
          <mxGeometry x="375" y="690" width="270" height="102.2" as="geometry" />
        </mxCell>
        <mxCell id="19" style="line;strokeWidth=1;fillColor=none;align=left;verticalAlign=middle;spacingTop=-1;spacingLeft=3;spacingRight=3;rotatable=0;labelPosition=right;points=[];portConstraint=eastwest;strokeColor=inherit;" parent="18" vertex="1">
          <mxGeometry y="47.2" width="270" height="8" as="geometry" />
        </mxCell>
        <mxCell id="20" value="get category()&#xa;display items()" style="text;strokeColor=none;fillColor=none;align=left;verticalAlign=top;spacingLeft=4;spacingRight=4;overflow=hidden;rotatable=0;points=[[0,0.5],[1,0.5]];portConstraint=eastwest;" parent="18" vertex="1">
          <mxGeometry y="55.2" width="270" height="47" as="geometry" />
        </mxCell>
        <mxCell id="21" value="GlutenFreeMenuItem" style="swimlane;fontStyle=1;align=center;verticalAlign=top;childLayout=stackLayout;horizontal=1;startSize=47.2;horizontalStack=0;resizeParent=1;resizeParentMax=0;resizeLast=0;collapsible=0;marginBottom=0;" parent="1" vertex="1">
          <mxGeometry x="660" y="730" width="276" height="102.2" as="geometry" />
        </mxCell>
        <mxCell id="22" style="line;strokeWidth=1;fillColor=none;align=left;verticalAlign=middle;spacingTop=-1;spacingLeft=3;spacingRight=3;rotatable=0;labelPosition=right;points=[];portConstraint=eastwest;strokeColor=inherit;" parent="21" vertex="1">
          <mxGeometry y="47.2" width="276" height="8" as="geometry" />
        </mxCell>
        <mxCell id="23" value="get category()&#xa;display items()" style="text;strokeColor=none;fillColor=none;align=left;verticalAlign=top;spacingLeft=4;spacingRight=4;overflow=hidden;rotatable=0;points=[[0,0.5],[1,0.5]];portConstraint=eastwest;" parent="21" vertex="1">
          <mxGeometry y="55.2" width="276" height="47" as="geometry" />
        </mxCell>
        <mxCell id="24" value="SpecialtyMenuItem" style="swimlane;fontStyle=1;align=center;verticalAlign=top;childLayout=stackLayout;horizontal=1;startSize=47.2;horizontalStack=0;resizeParent=1;resizeParentMax=0;resizeLast=0;collapsible=0;marginBottom=0;" parent="1" vertex="1">
          <mxGeometry x="921" y="608.1" width="252" height="102.2" as="geometry" />
        </mxCell>
        <mxCell id="25" style="line;strokeWidth=1;fillColor=none;align=left;verticalAlign=middle;spacingTop=-1;spacingLeft=3;spacingRight=3;rotatable=0;labelPosition=right;points=[];portConstraint=eastwest;strokeColor=inherit;" parent="24" vertex="1">
          <mxGeometry y="47.2" width="252" height="8" as="geometry" />
        </mxCell>
        <mxCell id="26" value="get category()&#xa;display items()" style="text;strokeColor=none;fillColor=none;align=left;verticalAlign=top;spacingLeft=4;spacingRight=4;overflow=hidden;rotatable=0;points=[[0,0.5],[1,0.5]];portConstraint=eastwest;" parent="24" vertex="1">
          <mxGeometry y="55.2" width="252" height="47" as="geometry" />
        </mxCell>
        <mxCell id="27" value="DrinkMenuItem" style="swimlane;fontStyle=1;align=center;verticalAlign=top;childLayout=stackLayout;horizontal=1;startSize=47.2;horizontalStack=0;resizeParent=1;resizeParentMax=0;resizeLast=0;collapsible=0;marginBottom=0;" parent="1" vertex="1">
          <mxGeometry x="1230" y="620" width="211" height="102.2" as="geometry" />
        </mxCell>
        <mxCell id="28" style="line;strokeWidth=1;fillColor=none;align=left;verticalAlign=middle;spacingTop=-1;spacingLeft=3;spacingRight=3;rotatable=0;labelPosition=right;points=[];portConstraint=eastwest;strokeColor=inherit;" parent="27" vertex="1">
          <mxGeometry y="47.2" width="211" height="8" as="geometry" />
        </mxCell>
        <mxCell id="29" value="get category()&#xa;display items()" style="text;strokeColor=none;fillColor=none;align=left;verticalAlign=top;spacingLeft=4;spacingRight=4;overflow=hidden;rotatable=0;points=[[0,0.5],[1,0.5]];portConstraint=eastwest;" parent="27" vertex="1">
          <mxGeometry y="55.2" width="211" height="47" as="geometry" />
        </mxCell>
        <mxCell id="30" value="Customer" style="swimlane;fontStyle=1;align=center;verticalAlign=top;childLayout=stackLayout;horizontal=1;startSize=47.2;horizontalStack=0;resizeParent=1;resizeParentMax=0;resizeLast=0;collapsible=0;marginBottom=0;" parent="1" vertex="1">
          <mxGeometry x="890" y="263" width="240" height="200" as="geometry" />
        </mxCell>
        <mxCell id="31" style="line;strokeWidth=1;fillColor=none;align=left;verticalAlign=middle;spacingTop=-1;spacingLeft=3;spacingRight=3;rotatable=0;labelPosition=right;points=[];portConstraint=eastwest;strokeColor=inherit;" parent="30" vertex="1">
          <mxGeometry y="47.2" width="240" height="8" as="geometry" />
        </mxCell>
        <mxCell id="32" value="id : int&#xa;name :MYstr&#xa;email : MYstr&#xa;dietary preference :MYstr&#xa;loyalty points : double&#xa;&#xa;getters()&#xa;add or remove loyalty points()&#xa;view order history&#xa;" style="text;strokeColor=none;fillColor=none;align=left;verticalAlign=top;spacingLeft=4;spacingRight=4;overflow=hidden;rotatable=0;points=[[0,0.5],[1,0.5]];portConstraint=eastwest;" parent="30" vertex="1">
          <mxGeometry y="55.2" width="240" height="144.8" as="geometry" />
        </mxCell>
        <mxCell id="OcVJJqnOSVhNaOeBst9T-73" value="" style="endArrow=none;html=1;rounded=0;entryX=1;entryY=0.632;entryDx=0;entryDy=0;entryPerimeter=0;" edge="1" parent="30" target="32">
          <mxGeometry width="50" height="50" relative="1" as="geometry">
            <mxPoint x="-0.5" y="142" as="sourcePoint" />
            <mxPoint x="79.5" y="-68" as="targetPoint" />
          </mxGeometry>
        </mxCell>
        <mxCell id="33" value="SalesRecord" style="swimlane;fontStyle=1;align=center;verticalAlign=top;childLayout=stackLayout;horizontal=1;startSize=47.2;horizontalStack=0;resizeParent=1;resizeParentMax=0;resizeLast=0;collapsible=0;marginBottom=0;" parent="1" vertex="1">
          <mxGeometry x="1275" y="100" width="210" height="224.8" as="geometry" />
        </mxCell>
        <mxCell id="34" style="line;strokeWidth=1;fillColor=none;align=left;verticalAlign=middle;spacingTop=-1;spacingLeft=3;spacingRight=3;rotatable=0;labelPosition=right;points=[];portConstraint=eastwest;strokeColor=inherit;" parent="33" vertex="1">
          <mxGeometry y="47.2" width="210" height="8" as="geometry" />
        </mxCell>
        <mxCell id="35" value="date : Date&#xa;item name :MYstr&#xa;quantity:int&#xa;price:double&#xa;&#xa;" style="text;strokeColor=none;fillColor=none;align=left;verticalAlign=top;spacingLeft=4;spacingRight=4;overflow=hidden;rotatable=0;points=[[0,0.5],[1,0.5]];portConstraint=eastwest;" parent="33" vertex="1">
          <mxGeometry y="55.2" width="210" height="84.8" as="geometry" />
        </mxCell>
        <mxCell id="OcVJJqnOSVhNaOeBst9T-66" value="get quantity()&#xa;get date()&#xa;get price()&#xa;get itemname()" style="text;strokeColor=none;fillColor=none;align=left;verticalAlign=top;spacingLeft=4;spacingRight=4;overflow=hidden;rotatable=0;points=[[0,0.5],[1,0.5]];portConstraint=eastwest;" vertex="1" parent="33">
          <mxGeometry y="140" width="210" height="84.8" as="geometry" />
        </mxCell>
        <mxCell id="OcVJJqnOSVhNaOeBst9T-65" value="" style="endArrow=none;html=1;rounded=0;entryX=1.002;entryY=0.822;entryDx=0;entryDy=0;entryPerimeter=0;exitX=0.002;exitY=0.822;exitDx=0;exitDy=0;exitPerimeter=0;" edge="1" parent="33" source="35" target="35">
          <mxGeometry width="50" height="50" relative="1" as="geometry">
            <mxPoint x="-205" y="110" as="sourcePoint" />
            <mxPoint x="-155" y="60" as="targetPoint" />
          </mxGeometry>
        </mxCell>
        <mxCell id="36" value="Date" style="swimlane;fontStyle=1;align=center;verticalAlign=top;childLayout=stackLayout;horizontal=1;startSize=47.2;horizontalStack=0;resizeParent=1;resizeParentMax=0;resizeLast=0;collapsible=0;marginBottom=0;" parent="1" vertex="1">
          <mxGeometry x="1177" y="384" width="145" height="132.2" as="geometry" />
        </mxCell>
        <mxCell id="OcVJJqnOSVhNaOeBst9T-70" value="day,month,year :int" style="text;html=1;align=center;verticalAlign=middle;resizable=0;points=[];autosize=1;strokeColor=none;fillColor=none;" vertex="1" parent="36">
          <mxGeometry y="47.2" width="145" height="30" as="geometry" />
        </mxCell>
        <mxCell id="37" style="line;strokeWidth=1;fillColor=none;align=left;verticalAlign=middle;spacingTop=-1;spacingLeft=3;spacingRight=3;rotatable=0;labelPosition=right;points=[];portConstraint=eastwest;strokeColor=inherit;" parent="36" vertex="1">
          <mxGeometry y="77.2" width="145" height="8" as="geometry" />
        </mxCell>
        <mxCell id="38" value="get month()&#xa;is same date()" style="text;strokeColor=none;fillColor=none;align=left;verticalAlign=top;spacingLeft=4;spacingRight=4;overflow=hidden;rotatable=0;points=[[0,0.5],[1,0.5]];portConstraint=eastwest;" parent="36" vertex="1">
          <mxGeometry y="85.2" width="145" height="47" as="geometry" />
        </mxCell>
        <mxCell id="41" value="" style="curved=1;startArrow=none;endArrow=open;endSize=12;" parent="1" source="2" target="33" edge="1">
          <mxGeometry relative="1" as="geometry" />
        </mxCell>
        <mxCell id="42" value="" style="curved=1;startArrow=none;endArrow=open;endSize=12;exitX=0.87;exitY=1;entryX=0.21;entryY=0;" parent="1" source="2" target="36" edge="1">
          <mxGeometry relative="1" as="geometry">
            <Array as="points">
              <mxPoint x="1191" y="183" />
              <mxPoint x="1191" y="359" />
            </Array>
          </mxGeometry>
        </mxCell>
        <mxCell id="43" value="" style="curved=1;startArrow=none;endArrow=open;endSize=12;exitX=0.5;exitY=1;entryX=0.5;entryY=0;" parent="1" source="6" target="12" edge="1">
          <mxGeometry relative="1" as="geometry">
            <Array as="points" />
          </mxGeometry>
        </mxCell>
        <mxCell id="44" value="" style="curved=1;startArrow=block;startSize=16;startFill=0;endArrow=none;exitX=0;exitY=0.6;entryX=0.5;entryY=0;" parent="1" source="12" target="15" edge="1">
          <mxGeometry relative="1" as="geometry">
            <Array as="points">
              <mxPoint x="117" y="535" />
            </Array>
          </mxGeometry>
        </mxCell>
        <mxCell id="45" value="" style="curved=1;startArrow=block;startSize=16;startFill=0;endArrow=none;exitX=0;exitY=0.7;entryX=0.5;entryY=0;" parent="1" source="12" target="18" edge="1">
          <mxGeometry relative="1" as="geometry">
            <Array as="points">
              <mxPoint x="410" y="535" />
            </Array>
          </mxGeometry>
        </mxCell>
        <mxCell id="46" value="" style="curved=1;startArrow=block;startSize=16;startFill=0;endArrow=none;exitX=0.48;exitY=1;entryX=0.5;entryY=0;" parent="1" source="12" target="21" edge="1">
          <mxGeometry relative="1" as="geometry" />
        </mxCell>
        <mxCell id="47" value="" style="curved=1;startArrow=block;startSize=16;startFill=0;endArrow=none;exitX=1;exitY=0.71;entryX=0.5;entryY=0;" parent="1" source="12" target="24" edge="1">
          <mxGeometry relative="1" as="geometry">
            <Array as="points">
              <mxPoint x="1047" y="535" />
            </Array>
          </mxGeometry>
        </mxCell>
        <mxCell id="48" value="" style="curved=1;startArrow=block;startSize=16;startFill=0;endArrow=none;exitX=1;exitY=0.61;entryX=0.5;entryY=0;" parent="1" source="12" target="27" edge="1">
          <mxGeometry relative="1" as="geometry">
            <Array as="points">
              <mxPoint x="1328" y="535" />
            </Array>
          </mxGeometry>
        </mxCell>
        <mxCell id="49" value="" style="curved=1;startArrow=none;endArrow=open;endSize=12;exitX=0.5;exitY=1;entryX=0.5;entryY=0;" parent="1" source="9" target="30" edge="1">
          <mxGeometry relative="1" as="geometry">
            <Array as="points" />
          </mxGeometry>
        </mxCell>
        <mxCell id="50" value="" style="curved=1;startArrow=none;endArrow=open;endSize=12;exitX=0.5;exitY=1;entryX=0.79;entryY=0;" parent="1" source="33" target="36" edge="1">
          <mxGeometry relative="1" as="geometry">
            <Array as="points">
              <mxPoint x="1309" y="359" />
            </Array>
          </mxGeometry>
        </mxCell>
        <mxCell id="OcVJJqnOSVhNaOeBst9T-52" value="inherits" style="text;html=1;align=center;verticalAlign=middle;resizable=0;points=[];autosize=1;strokeColor=none;fillColor=none;" vertex="1" parent="1">
          <mxGeometry x="730" y="-70" width="60" height="30" as="geometry" />
        </mxCell>
        <mxCell id="OcVJJqnOSVhNaOeBst9T-53" value="inherits" style="text;html=1;align=center;verticalAlign=middle;resizable=0;points=[];autosize=1;strokeColor=none;fillColor=none;" vertex="1" parent="1">
          <mxGeometry x="983" y="-150" width="60" height="30" as="geometry" />
        </mxCell>
        <mxCell id="OcVJJqnOSVhNaOeBst9T-54" value="composition" style="text;html=1;align=center;verticalAlign=middle;resizable=0;points=[];autosize=1;strokeColor=none;fillColor=none;" vertex="1" parent="1">
          <mxGeometry x="1220" y="-80" width="90" height="30" as="geometry" />
        </mxCell>
        <mxCell id="OcVJJqnOSVhNaOeBst9T-68" value="aggregates" style="text;html=1;align=center;verticalAlign=middle;resizable=0;points=[];autosize=1;strokeColor=none;fillColor=none;" vertex="1" parent="1">
          <mxGeometry x="1173" y="90" width="80" height="30" as="geometry" />
        </mxCell>
        <mxCell id="OcVJJqnOSVhNaOeBst9T-69" value="aggregates" style="text;html=1;align=center;verticalAlign=middle;resizable=0;points=[];autosize=1;strokeColor=none;fillColor=none;" vertex="1" parent="1">
          <mxGeometry x="1320" y="348" width="80" height="30" as="geometry" />
        </mxCell>
        <mxCell id="OcVJJqnOSVhNaOeBst9T-71" value="aggregates" style="text;html=1;align=center;verticalAlign=middle;resizable=0;points=[];autosize=1;strokeColor=none;fillColor=none;" vertex="1" parent="1">
          <mxGeometry x="1010" y="190" width="80" height="30" as="geometry" />
        </mxCell>
        <mxCell id="OcVJJqnOSVhNaOeBst9T-72" value="aggregates" style="text;html=1;align=center;verticalAlign=middle;resizable=0;points=[];autosize=1;strokeColor=none;fillColor=none;" vertex="1" parent="1">
          <mxGeometry x="700" y="318" width="80" height="30" as="geometry" />
        </mxCell>
        <mxCell id="OcVJJqnOSVhNaOeBst9T-75" value="" style="endArrow=classic;html=1;rounded=0;exitX=0.276;exitY=1.035;exitDx=0;exitDy=0;exitPerimeter=0;entryX=0.461;entryY=-0.017;entryDx=0;entryDy=0;entryPerimeter=0;" edge="1" parent="1" source="5" target="9">
          <mxGeometry width="50" height="50" relative="1" as="geometry">
            <mxPoint x="920" y="-80" as="sourcePoint" />
            <mxPoint x="990" y="-100" as="targetPoint" />
          </mxGeometry>
        </mxCell>
        <mxCell id="OcVJJqnOSVhNaOeBst9T-79" value="" style="endArrow=none;html=1;rounded=0;entryX=0.991;entryY=0.058;entryDx=0;entryDy=0;entryPerimeter=0;" edge="1" parent="1" target="OcVJJqnOSVhNaOeBst9T-78">
          <mxGeometry width="50" height="50" relative="1" as="geometry">
            <mxPoint x="630" y="503" as="sourcePoint" />
            <mxPoint x="700" y="520" as="targetPoint" />
          </mxGeometry>
        </mxCell>
        <mxCell id="OcVJJqnOSVhNaOeBst9T-81" value="inherits" style="text;html=1;align=center;verticalAlign=middle;resizable=0;points=[];autosize=1;strokeColor=none;fillColor=none;" vertex="1" parent="1">
          <mxGeometry x="360" y="468" width="60" height="30" as="geometry" />
        </mxCell>
        <mxCell id="OcVJJqnOSVhNaOeBst9T-82" value="inherits" style="text;html=1;align=center;verticalAlign=middle;resizable=0;points=[];autosize=1;strokeColor=none;fillColor=none;" vertex="1" parent="1">
          <mxGeometry x="510" y="538" width="60" height="30" as="geometry" />
        </mxCell>
        <mxCell id="OcVJJqnOSVhNaOeBst9T-83" value="inherits" style="text;html=1;align=center;verticalAlign=middle;resizable=0;points=[];autosize=1;strokeColor=none;fillColor=none;" vertex="1" parent="1">
          <mxGeometry x="730" y="598" width="60" height="30" as="geometry" />
        </mxCell>
        <mxCell id="OcVJJqnOSVhNaOeBst9T-84" value="inherits" style="text;html=1;align=center;verticalAlign=middle;resizable=0;points=[];autosize=1;strokeColor=none;fillColor=none;" vertex="1" parent="1">
          <mxGeometry x="1004" y="529.2" width="60" height="30" as="geometry" />
        </mxCell>
        <mxCell id="OcVJJqnOSVhNaOeBst9T-85" value="inherits" style="text;html=1;align=center;verticalAlign=middle;resizable=0;points=[];autosize=1;strokeColor=none;fillColor=none;" vertex="1" parent="1">
          <mxGeometry x="1270" y="538" width="60" height="30" as="geometry" />
        </mxCell>
        <mxCell id="OcVJJqnOSVhNaOeBst9T-86" value="MYstr" style="swimlane;fontStyle=0;childLayout=stackLayout;horizontal=1;startSize=26;fillColor=none;horizontalStack=0;resizeParent=1;resizeParentMax=0;resizeLast=0;collapsible=1;marginBottom=0;html=1;" vertex="1" parent="1">
          <mxGeometry x="1253" y="810" width="140" height="104" as="geometry" />
        </mxCell>
        <mxCell id="OcVJJqnOSVhNaOeBst9T-87" value="len : int" style="text;strokeColor=none;fillColor=none;align=left;verticalAlign=top;spacingLeft=4;spacingRight=4;overflow=hidden;rotatable=0;points=[[0,0.5],[1,0.5]];portConstraint=eastwest;whiteSpace=wrap;html=1;" vertex="1" parent="OcVJJqnOSVhNaOeBst9T-86">
          <mxGeometry y="26" width="140" height="26" as="geometry" />
        </mxCell>
        <mxCell id="OcVJJqnOSVhNaOeBst9T-88" value="cap : int" style="text;strokeColor=none;fillColor=none;align=left;verticalAlign=top;spacingLeft=4;spacingRight=4;overflow=hidden;rotatable=0;points=[[0,0.5],[1,0.5]];portConstraint=eastwest;whiteSpace=wrap;html=1;" vertex="1" parent="OcVJJqnOSVhNaOeBst9T-86">
          <mxGeometry y="52" width="140" height="26" as="geometry" />
        </mxCell>
        <mxCell id="OcVJJqnOSVhNaOeBst9T-89" value="Cs&amp;nbsp; :char*" style="text;strokeColor=none;fillColor=none;align=left;verticalAlign=top;spacingLeft=4;spacingRight=4;overflow=hidden;rotatable=0;points=[[0,0.5],[1,0.5]];portConstraint=eastwest;whiteSpace=wrap;html=1;" vertex="1" parent="OcVJJqnOSVhNaOeBst9T-86">
          <mxGeometry y="78" width="140" height="26" as="geometry" />
        </mxCell>
        <mxCell id="OcVJJqnOSVhNaOeBst9T-90" value="MYvector" style="swimlane;fontStyle=0;childLayout=stackLayout;horizontal=1;startSize=26;fillColor=none;horizontalStack=0;resizeParent=1;resizeParentMax=0;resizeLast=0;collapsible=1;marginBottom=0;html=1;" vertex="1" parent="1">
          <mxGeometry x="1420" y="810" width="140" height="104" as="geometry" />
        </mxCell>
        <mxCell id="OcVJJqnOSVhNaOeBst9T-91" value="len : int" style="text;strokeColor=none;fillColor=none;align=left;verticalAlign=top;spacingLeft=4;spacingRight=4;overflow=hidden;rotatable=0;points=[[0,0.5],[1,0.5]];portConstraint=eastwest;whiteSpace=wrap;html=1;" vertex="1" parent="OcVJJqnOSVhNaOeBst9T-90">
          <mxGeometry y="26" width="140" height="26" as="geometry" />
        </mxCell>
        <mxCell id="OcVJJqnOSVhNaOeBst9T-92" value="cap : int" style="text;strokeColor=none;fillColor=none;align=left;verticalAlign=top;spacingLeft=4;spacingRight=4;overflow=hidden;rotatable=0;points=[[0,0.5],[1,0.5]];portConstraint=eastwest;whiteSpace=wrap;html=1;" vertex="1" parent="OcVJJqnOSVhNaOeBst9T-90">
          <mxGeometry y="52" width="140" height="26" as="geometry" />
        </mxCell>
        <mxCell id="OcVJJqnOSVhNaOeBst9T-93" value="Cs&amp;nbsp; : T*&amp;nbsp;" style="text;strokeColor=none;fillColor=none;align=left;verticalAlign=top;spacingLeft=4;spacingRight=4;overflow=hidden;rotatable=0;points=[[0,0.5],[1,0.5]];portConstraint=eastwest;whiteSpace=wrap;html=1;" vertex="1" parent="OcVJJqnOSVhNaOeBst9T-90">
          <mxGeometry y="78" width="140" height="26" as="geometry" />
        </mxCell>
        <mxCell id="OcVJJqnOSVhNaOeBst9T-94" value="string and vector classes used in multiple classes (association)" style="text;html=1;align=center;verticalAlign=middle;resizable=0;points=[];autosize=1;strokeColor=none;fillColor=none;" vertex="1" parent="1">
          <mxGeometry x="1220" y="914" width="360" height="30" as="geometry" />
        </mxCell>
      </root>
    </mxGraphModel>
  </diagram>
</mxfile>
